<svg viewBox="0 0 320 420" xmlns="http://www.w3.org/2000/svg">
  <rect width="320" height="420" fill="#ffffff"/>
  <text x="30" y="290" font-family="Arial, Helvetica, sans-serif" font-weight="800" font-size="40" fill="#161a4a" letter-spacing="2" transform="rotate(-90 30 290)">KJELS&#197;S</text>
  <rect x="205" y="34" width="72" height="255" rx="36" fill="#161a4a"/>
  <rect x="80" y="34" width="136" height="126" rx="34" fill="#161a4a"/>
  <rect x="80" y="298" width="136" height="70" rx="35" fill="#161a4a"/>
  <g transform="translate(95,40) scale(1.02)" fill="none" stroke="#ffffff" stroke-linejoin="round" stroke-linecap="round">
    <path d="M18,14 Q50,4 82,14 C90,17 90,26 88,36 C84,60 72,82 50,112 C28,82 16,60 12,36 C10,26 10,17 18,14 Z" stroke-width="4.2"/>
    <path d="M14,20 C5,19 1,10 8,5 C13,1 19,3 18,9" stroke-width="2.6"/>
    <path d="M86,20 C95,19 99,10 92,5 C87,1 81,3 82,9" stroke-width="2.6"/>
    <path d="M50.0,25.0 L52.53,32.52 L60.46,32.6 L54.09,37.33 L56.47,44.9 L50.0,40.3 L43.53,44.9 L45.91,37.33 L39.54,32.6 L47.47,32.52 Z" fill="#ffffff" stroke="none"/>
    <text x="50" y="80" font-family="Arial, Helvetica, sans-serif" font-weight="800" font-size="16" fill="#ffffff" stroke="none" text-anchor="middle" letter-spacing="1">1913</text>
  </g>
</svg>
